<svg id="圖層_1" data-name="圖層 1" xmlns="http://www.w3.org/2000/svg" xmlns:xlink="http://www.w3.org/1999/xlink" viewBox="0 0 253.91 46.98"><defs><style>.cls-1{fill:#d21570;}.cls-2{fill:#361e87;}.cls-3{fill:url(#未命名漸層_26);}.cls-4{fill:url(#未命名漸層_26-2);}.cls-5{fill:url(#未命名漸層_26-3);}.cls-6{fill:url(#未命名漸層_26-4);}.cls-7{fill:url(#未命名漸層_26-5);}.cls-8{fill:url(#未命名漸層_26-6);}.cls-9{fill:url(#未命名漸層_26-7);}.cls-10{fill:url(#未命名漸層_26-8);}.cls-11{fill:url(#未命名漸層_26-9);}.cls-12{fill:url(#未命名漸層_26-10);}.cls-13{fill:#fff;}</style><linearGradient id="未命名漸層_26" x1="146.28" y1="391.97" x2="200.72" y2="459.53" gradientUnits="userSpaceOnUse"><stop offset="0.54" stop-color="#0d308e"/><stop offset="0.83" stop-color="#932882"/><stop offset="1" stop-color="#d21577"/></linearGradient><linearGradient id="未命名漸層_26-2" x1="151.3" y1="387.93" x2="205.73" y2="455.49" xlink:href="#未命名漸層_26"/><linearGradient id="未命名漸層_26-3" x1="152.27" y1="387.15" x2="206.7" y2="454.71" xlink:href="#未命名漸層_26"/><linearGradient id="未命名漸層_26-4" x1="154.23" y1="385.56" x2="208.66" y2="453.13" xlink:href="#未命名漸層_26"/><linearGradient id="未命名漸層_26-5" x1="162.11" y1="379.22" x2="216.54" y2="446.78" xlink:href="#未命名漸層_26"/><linearGradient id="未命名漸層_26-6" x1="167.06" y1="375.23" x2="221.49" y2="442.79" xlink:href="#未命名漸層_26"/><linearGradient id="未命名漸層_26-7" x1="149.02" y1="389.77" x2="203.45" y2="457.33" xlink:href="#未命名漸層_26"/><linearGradient id="未命名漸層_26-8" x1="149.42" y1="389.44" x2="203.85" y2="457.01" xlink:href="#未命名漸層_26"/><linearGradient id="未命名漸層_26-9" x1="152.45" y1="387" x2="206.88" y2="454.56" xlink:href="#未命名漸層_26"/><linearGradient id="未命名漸層_26-10" x1="170.6" y1="372.37" x2="225.04" y2="439.94" xlink:href="#未命名漸層_26"/></defs><path class="cls-1" d="M262.66,417.36h-10v2.93h10v3.85h-10V431h-4.27V413.51h14.29Z" transform="translate(-170.54 -397.51)"/><path class="cls-1" d="M271.13,413.51V431H266.9V413.51Z" transform="translate(-170.54 -397.51)"/><path class="cls-1" d="M275.42,413.51h6.27a7,7,0,0,1,3.13.72,8.71,8.71,0,0,1,2.55,1.91,9.21,9.21,0,0,1,1.73,9.43,9.24,9.24,0,0,1-1.71,2.8,8.43,8.43,0,0,1-2.55,1.93,7,7,0,0,1-3.15.72h-6.27Zm4.24,13.65h1a4.91,4.91,0,0,0,2-.37,4.26,4.26,0,0,0,1.46-1,4.4,4.4,0,0,0,.91-1.54,6.25,6.25,0,0,0,0-3.92,4.69,4.69,0,0,0-.92-1.55,4.25,4.25,0,0,0-1.46-1,5.06,5.06,0,0,0-1.95-.37h-1Z" transform="translate(-170.54 -397.51)"/><path class="cls-2" d="M292.41,422.26a9.27,9.27,0,0,1,.64-3.44,8.6,8.6,0,0,1,1.76-2.78,8.1,8.1,0,0,1,2.69-1.86,9.19,9.19,0,0,1,6.89,0,8.23,8.23,0,0,1,2.72,1.86,8.8,8.8,0,0,1,1.77,2.78,9.73,9.73,0,0,1,0,6.89,8.8,8.8,0,0,1-1.77,2.78,8.23,8.23,0,0,1-2.72,1.86,9.19,9.19,0,0,1-6.89,0,8.1,8.1,0,0,1-2.69-1.86,8.6,8.6,0,0,1-1.76-2.78A9.32,9.32,0,0,1,292.41,422.26Zm4.2,0a4.77,4.77,0,0,0,.35,1.83,4.65,4.65,0,0,0,.94,1.45,4.4,4.4,0,0,0,1.38,1,4.16,4.16,0,0,0,1.67.34,4.09,4.09,0,0,0,1.67-.34,4.33,4.33,0,0,0,1.39-1,4.53,4.53,0,0,0,1-1.45,4.77,4.77,0,0,0,.34-1.83,4.68,4.68,0,0,0-.34-1.82,4.53,4.53,0,0,0-1-1.45,4.18,4.18,0,0,0-1.39-1,4.09,4.09,0,0,0-1.67-.34,4.16,4.16,0,0,0-1.67.34,4.24,4.24,0,0,0-1.38,1,4.68,4.68,0,0,0-1.29,3.27Z" transform="translate(-170.54 -397.51)"/><path class="cls-2" d="M315,425.88a20.83,20.83,0,0,1-.35,5.56l-2.06-.76a15.7,15.7,0,0,0,1.55-4.9Zm14.34-11.11v14.84c0,2-2,2.69-5,.93l.25-.86c2.43.38,2.69.19,2.69-.74v-1.13a3,3,0,0,1-2.41.78c-1.91,0-2.35-.3-2.35-2v-2.49h-.59V423H324a20.65,20.65,0,0,0-.86-2.16l.44-.25H321.9v-1.07h.88a28.39,28.39,0,0,0-.75-2.92l.79-.37a13.74,13.74,0,0,1,1.55,2.79l-1.32.5h1.57a20.6,20.6,0,0,0,.78-3.27l1.72.56a16.82,16.82,0,0,1-1.4,2.71H327v1.07h-2.76a9.94,9.94,0,0,1,1.42,2l-1,.42H327v1.09h-2.62v2.12c0,.61.21.69.82.69a1.6,1.6,0,0,0,1.28-.48l.8,1V415.92h-5.64v15.65h-2v-2.52l-1.63.65c-.28-1.28-.7-2.91-1.11-4.19l.79-.32a17.62,17.62,0,0,1,1.95,3.52v-3.79l-1.3.57c-.12-.47-.27-1-.44-1.52a19.49,19.49,0,0,1-4.42,1.49l-.55-2.16c.46,0,.91,0,1.35,0a20.65,20.65,0,0,0,1.76-3.06,14.15,14.15,0,0,1-2.64.78l-.42-2.14c.37,0,.69,0,1,0a38.45,38.45,0,0,0,1.34-5.2l2.29.59a24.24,24.24,0,0,1-2.49,4.61c.52,0,1,0,1.53-.08.33-.72.64-1.49.92-2.29l2,.9v-2.66Zm-13.1,10.86a32.51,32.51,0,0,1,1.3,4.76l-2,.29c0-1.28,0-3.46-.13-4.9Zm3.33-1.7v-6.47a25.93,25.93,0,0,1-3.92,5.74c.63-.06,1.26-.13,1.87-.23-.15-.42-.28-.82-.42-1.17l.78-.43A12.36,12.36,0,0,1,319.59,423.93Z" transform="translate(-170.54 -397.51)"/><path class="cls-2" d="M348.63,425.25l-.71-.25v6.5h-2.2v-1.13h-3.29v1.15h-2.2V425c-.49.19-1,.38-1.55.53l-.38-.95a14,14,0,0,0,4.63-3.16,10.88,10.88,0,0,1-1.68-2.62,11.92,11.92,0,0,1-1.53,1.63l-.5-.48v.69h-1.78v2.14h2.14V424h-2.14v3.76c.75-.19,1.42-.38,1.95-.57l.4.94a29,29,0,0,1-7.3,3.15l-.67-2.43,1-.11v-6.25h1.89v5.9l.69-.13v-7.57h-2.49v-6h6.33v4.91a18.3,18.3,0,0,0,2.12-5.91l2.31.67a14,14,0,0,1-.61,1.51h2.39l.52-.42,2.24,1.07a14.28,14.28,0,0,1-2.7,4.86,16.47,16.47,0,0,0,4.13,1.53ZM335,419.55h2.23v-3.79H335Zm12.19,5.12a12.29,12.29,0,0,1-3-2,13.92,13.92,0,0,1-3.11,2Zm-3.23-4.45a11.61,11.61,0,0,0,1.55-3.25h-3c-.17.3-.36.61-.56.92A9.56,9.56,0,0,0,343.92,420.22Zm1.8,5.6h-3.29v3.38h3.29Z" transform="translate(-170.54 -397.51)"/><path class="cls-2" d="M364.74,425v4.34c0,2.37-2.12,3-5.68,1.3l.23-1c2.83.41,3.06.12,3.06-1v-1.74a26,26,0,0,1-11,4.27l-.27-1a27.82,27.82,0,0,0,10.34-4.8,66,66,0,0,1-9.46,1.74l-.42-2.14c.9,0,1.82-.06,2.73-.12v-8.45h4a27.29,27.29,0,0,0,.42-2.83l2.69.48a15.65,15.65,0,0,1-1.74,2.35h5.09V422a17.3,17.3,0,0,0,1.55-2.4l1.91,1.14A20.13,20.13,0,0,1,364.74,425Zm-8.13-6h5.74v-1.41h-5.74Zm0,2.7h5.74v-1.53h-5.74Zm0,3c2.05-.15,4-.38,5.74-.61v-1.22h-5.74Z" transform="translate(-170.54 -397.51)"/><path class="cls-2" d="M387.64,421.29l-1.51,2.48a9.88,9.88,0,0,1-2-1.64c-.21,3.75-.48,6.08-.67,7.27-.38,2.31-2.6,3-6.42.93l.27-1c3,.51,3.53.46,3.73-.81a50.76,50.76,0,0,0,.47-5.81h-3.17c-.38,3.75-2.24,7.65-7.51,9l-.37-.94c4.15-2.14,5-5.14,5.3-8.09H373v-.55a12.49,12.49,0,0,1-2.52,1.87l-.61-.86a15.94,15.94,0,0,0,4.53-8.37l2.58.7a15.54,15.54,0,0,1-3.23,5.89h9.77a13.64,13.64,0,0,1-2.56-5.75h-3.42v-1.32H382A10.36,10.36,0,0,0,387.64,421.29Z" transform="translate(-170.54 -397.51)"/><path class="cls-2" d="M395.06,418.06H389.3v-1.19h2.31a22.42,22.42,0,0,0-1.37-2.73l.69-.56a12.53,12.53,0,0,1,2.6,2.66l-1.07.63h2.6Zm-5.24,2.43v-1.15h4.8v1.15Zm4.8,2.39h-4.8v-1.15h4.8Zm-4.78,1.31h4.83v6.72h-1.85v-1.23h-1.13v1.63h-1.85Zm1.85,4.38h1.13v-3.25h-1.13Zm12.52,2.85a4.12,4.12,0,0,1-1.93-2.39,12.31,12.31,0,0,1-4.36,2.54l-.4-.86a12.88,12.88,0,0,0,3.08-2.12h-3.29v1.3h-1.87V422.3h5.24v6.22a13,13,0,0,0,1.11-1.23,32.43,32.43,0,0,1-.58-5.91h-6.35v-1.14h1.55a24.53,24.53,0,0,0-.67-2.66l.81-.33a10.38,10.38,0,0,1,1.47,2.66l-1,.33h1.44a23.78,23.78,0,0,0,.47-3l1.76.45a14.65,14.65,0,0,1-1.2,2.55h1.66c0-2.09-.05-4.42,0-6.31h1.92c0,1.89,0,4.17.05,6.31H406v1.14h-2.85c0,1.19.1,2.3.19,3.29a17.47,17.47,0,0,0,1-2.56l1.76.77a19,19,0,0,1-2.3,4.45,3.59,3.59,0,0,0,.9,1.86c.33.24.61-.16.56-2.78h.9C406.93,430.41,406.14,432.34,404.21,431.42Zm-3.34-14.3h-5.64v-1.07h2.41a20.44,20.44,0,0,0-1.5-1.87l.6-.65a10.31,10.31,0,0,1,2.67,1.83l-.8.69h2.26Zm-2,6.27h-1.53v1.49h1.53Zm0,2.54h-1.53v1.55h1.53Zm5.26-6.67c-.23-1.22-.59-2.62-.9-3.76l.78-.33a12.4,12.4,0,0,1,1.88,3.4Z" transform="translate(-170.54 -397.51)"/><path class="cls-2" d="M413.29,422.59h4.34a52.2,52.2,0,0,1-.53,6.67c-.42,2.37-2.83,2.79-5.22.86l.36-.92c2.12.54,2.5.41,2.7-.74s.28-2.66.38-4.69h-2.14c-.44,3.52-1.59,6.12-4.48,7.88l-.59-.74c2.1-2.26,2.79-5.09,2.89-10h-1.82v-6.11h8.26V421h-4.07C413.35,421.52,413.33,422.07,413.29,422.59Zm-1.89-2.81h3.84V416H411.4ZM424.46,414v15.22c0,2.58-2.62,3.1-5.8,1.15l.27-1c2.72.48,3.29.35,3.29-.59V414Zm-3.64,13H418.7V415.86h2.12Z" transform="translate(-170.54 -397.51)"/><path class="cls-2" d="M314.78,404.67h1.57v2.13h2v-2.13H320v5.7h-1.58V408.2h-2v2.17h-1.57Z" transform="translate(-170.54 -397.51)"/><path class="cls-2" d="M321.47,411.31l.48-1.08a1.6,1.6,0,0,0,.68.23.39.39,0,0,0,.36-.18L321.26,406h1.62l.88,2.65.83-2.65h1.58l-1.61,4.29c-.38,1-.79,1.43-1.67,1.43A2.83,2.83,0,0,1,321.47,411.31Z" transform="translate(-170.54 -397.51)"/><path class="cls-2" d="M327,406h1.51l.58,2.21.68-2.23H331l.69,2.24.59-2.22h1.49l-1.36,4.43h-1.33l-.72-2.29-.73,2.29h-1.33Z" transform="translate(-170.54 -397.51)"/><path class="cls-2" d="M334.64,408.19v0a2.2,2.2,0,0,1,2.22-2.3,2.16,2.16,0,0,1,2.22,2.41c0,.09,0,.21,0,.31h-2.94a.91.91,0,0,0,.95.73,1.33,1.33,0,0,0,1-.45l.85.71a2.31,2.31,0,0,1-1.91.89A2.22,2.22,0,0,1,334.64,408.19Zm3-.39a.78.78,0,0,0-.76-.79c-.41,0-.69.31-.77.79Z" transform="translate(-170.54 -397.51)"/><path class="cls-2" d="M342,409.83v.54h-1.55v-5.94H342v2.12a1.62,1.62,0,0,1,1.33-.68,2.06,2.06,0,0,1,1.95,2.28h0a2.07,2.07,0,0,1-1.94,2.3A1.64,1.64,0,0,1,342,409.83Zm1.76-1.66v0a.9.9,0,1,0-1.8,0v0a.91.91,0,1,0,1.8,0Z" transform="translate(-170.54 -397.51)"/><path class="cls-2" d="M351.11,406.06H349.4v-1.39h5v1.39h-1.71v4.31h-1.57Z" transform="translate(-170.54 -397.51)"/><path class="cls-2" d="M354.77,408.19v0a2.2,2.2,0,0,1,2.22-2.3,2.16,2.16,0,0,1,2.22,2.41c0,.09,0,.21,0,.31h-2.94a.91.91,0,0,0,.95.73,1.33,1.33,0,0,0,1-.45l.85.71a2.31,2.31,0,0,1-1.91.89A2.22,2.22,0,0,1,354.77,408.19Zm3-.39A.78.78,0,0,0,357,407c-.41,0-.68.31-.76.79Z" transform="translate(-170.54 -397.51)"/><path class="cls-2" d="M360.4,408.19v0a2.29,2.29,0,0,1,2.36-2.29,2.07,2.07,0,0,1,1.88,1l-1.05.78a1,1,0,0,0-.82-.46.91.91,0,0,0-.86,1v0a.91.91,0,0,0,.88,1,1,1,0,0,0,.84-.46l1,.75a2.2,2.2,0,0,1-2,1A2.27,2.27,0,0,1,360.4,408.19Z" transform="translate(-170.54 -397.51)"/><path class="cls-2" d="M365.92,404.43h1.55v2.14a1.6,1.6,0,0,1,1.32-.7,1.44,1.44,0,0,1,1.49,1.62v2.88h-1.54V408c0-.48-.26-.74-.62-.74s-.65.26-.65.74v2.39h-1.55Z" transform="translate(-170.54 -397.51)"/><path class="cls-2" d="M371.79,406h1.55v.61a1.63,1.63,0,0,1,1.31-.71,1.44,1.44,0,0,1,1.5,1.62v2.88H374.6V408c0-.48-.25-.74-.61-.74s-.65.26-.65.74v2.39h-1.55Z" transform="translate(-170.54 -397.51)"/><path class="cls-2" d="M377.48,408.19v0a2.34,2.34,0,0,1,2.44-2.3,2.31,2.31,0,0,1,2.42,2.28v0a2.43,2.43,0,0,1-4.86,0Zm3.36,0v0a1,1,0,0,0-.94-1,.92.92,0,0,0-.92,1v0a1,1,0,0,0,.94,1A.92.92,0,0,0,380.84,408.19Z" transform="translate(-170.54 -397.51)"/><path class="cls-2" d="M383.74,404.43h1.54v5.94h-1.54Z" transform="translate(-170.54 -397.51)"/><path class="cls-2" d="M386.68,408.19v0a2.34,2.34,0,0,1,2.44-2.3,2.31,2.31,0,0,1,2.42,2.28v0a2.43,2.43,0,0,1-4.86,0Zm3.36,0v0a1,1,0,0,0-.94-1,.92.92,0,0,0-.92,1v0a1,1,0,0,0,.94,1A.92.92,0,0,0,390,408.19Z" transform="translate(-170.54 -397.51)"/><path class="cls-2" d="M392.86,411.18l.5-1a3,3,0,0,0,1.54.42c.77,0,1.15-.38,1.15-1.08v-.17a1.72,1.72,0,0,1-1.36.66,1.92,1.92,0,0,1-1.95-2.05h0a1.92,1.92,0,0,1,1.91-2.05,1.75,1.75,0,0,1,1.38.62V406h1.54v3.34a2.34,2.34,0,0,1-.57,1.75,2.58,2.58,0,0,1-1.93.62A4.83,4.83,0,0,1,392.86,411.18Zm3.19-3.25h0a.84.84,0,0,0-.89-.85.85.85,0,0,0-.9.86h0a.9.9,0,0,0,1.79,0Z" transform="translate(-170.54 -397.51)"/><path class="cls-2" d="M399,411.31l.48-1.08a1.56,1.56,0,0,0,.68.23.37.37,0,0,0,.35-.18L398.79,406h1.62l.88,2.65.83-2.65h1.58l-1.61,4.29c-.38,1-.8,1.43-1.67,1.43A2.83,2.83,0,0,1,399,411.31Z" transform="translate(-170.54 -397.51)"/><path class="cls-2" d="M408,404.67h1.58v5.7H408Z" transform="translate(-170.54 -397.51)"/><path class="cls-2" d="M411.26,406h1.54v.61a1.65,1.65,0,0,1,1.32-.71,1.44,1.44,0,0,1,1.5,1.62v2.88h-1.55V408c0-.48-.25-.74-.62-.74a.65.65,0,0,0-.65.74v2.39h-1.54Z" transform="translate(-170.54 -397.51)"/><path class="cls-2" d="M417,408.19v0a2.28,2.28,0,0,1,2.36-2.29,2.07,2.07,0,0,1,1.87,1l-1.05.78a.94.94,0,0,0-.82-.46.91.91,0,0,0-.86,1v0a.91.91,0,0,0,.88,1,1.06,1.06,0,0,0,.85-.46l1,.75a2.19,2.19,0,0,1-2,1A2.26,2.26,0,0,1,417,408.19Z" transform="translate(-170.54 -397.51)"/><path class="cls-2" d="M422.4,408.78H424v1.59H422.4Z" transform="translate(-170.54 -397.51)"/><path class="cls-3" d="M181.33,436.68a1.21,1.21,0,1,1,1.21-1.21A1.21,1.21,0,0,1,181.33,436.68Z" transform="translate(-170.54 -397.51)"/><path class="cls-4" d="M193.52,441.55a1.21,1.21,0,1,1,1.21-1.21A1.21,1.21,0,0,1,193.52,441.55Z" transform="translate(-170.54 -397.51)"/><path class="cls-5" d="M171.75,412.55a1.22,1.22,0,1,1,1.22-1.22A1.22,1.22,0,0,1,171.75,412.55Z" transform="translate(-170.54 -397.51)"/><path class="cls-6" d="M178.91,417.4a1.21,1.21,0,1,1,1.21-1.21A1.22,1.22,0,0,1,178.91,417.4Z" transform="translate(-170.54 -397.51)"/><path class="cls-7" d="M184.08,407.7a1.21,1.21,0,1,1,1.21-1.21A1.21,1.21,0,0,1,184.08,407.7Z" transform="translate(-170.54 -397.51)"/><path class="cls-8" d="M188.29,402.79a1.21,1.21,0,1,1,1.21-1.21A1.21,1.21,0,0,1,188.29,402.79Z" transform="translate(-170.54 -397.51)"/><path class="cls-9" d="M174.18,422.21a1.21,1.21,0,1,1,1.21-1.21A1.21,1.21,0,0,1,174.18,422.21Z" transform="translate(-170.54 -397.51)"/><path class="cls-10" d="M178.73,427a1.22,1.22,0,1,1,0-2.43,1.22,1.22,0,0,1,0,2.43Z" transform="translate(-170.54 -397.51)"/><path class="cls-11" d="M187.58,431.82a1.22,1.22,0,1,1,1.21-1.22A1.22,1.22,0,0,1,187.58,431.82Z" transform="translate(-170.54 -397.51)"/><path class="cls-12" d="M217.39,397.51A23.34,23.34,0,0,0,206,400.45H192.15a1.21,1.21,0,0,0,0,2.42h10.16a1.13,1.13,0,0,1,1.24,1.21c0,1.24-1.09,1.21-1.87,1.21h-14a1.21,1.21,0,1,0,0,2.41l7.68,0c1.11,0,1.52.58,1.52,1.2a1.21,1.21,0,0,1-1.21,1.21h-20.3a1.21,1.21,0,1,0,0,2.42h21.31a1.21,1.21,0,1,1,0,2.42H182.82a1.21,1.21,0,1,0,0,2.41h8.76a1.21,1.21,0,1,1,0,2.42H178a1.21,1.21,0,1,0,0,2.42h9.41a1.19,1.19,0,0,1,1.22,1.21,1.22,1.22,0,0,1-1.22,1.22h-5.06a1.21,1.21,0,1,0,0,2.41h12.37a22.56,22.56,0,0,0,.78,2.41l-4.41,0a1.21,1.21,0,0,0,0,2.42h3.28v0a1.21,1.21,0,0,1,0,2.42l-9.06,0a1.21,1.21,0,0,0-1.21,1.21,1.19,1.19,0,0,0,1.19,1.2l14.69,0a23.58,23.58,0,0,0,2.27,2.2,1.21,1.21,0,0,1-.7.22l-3.72,0a1.21,1.21,0,1,0,0,2.42H206a23.49,23.49,0,1,0,11.38-44Z" transform="translate(-170.54 -397.51)"/><path class="cls-13" d="M225.38,419.67a4.46,4.46,0,0,1-4.45,4.46h-4.22a1.83,1.83,0,0,0-1.83,1.83V429a4.46,4.46,0,0,1-4.46,4.45h0V426h0a6.29,6.29,0,0,1,6.29-6.29Z" transform="translate(-170.54 -397.51)"/><path class="cls-13" d="M214.88,411.56a4.46,4.46,0,0,0-4.46,4.45h12.93a4.46,4.46,0,0,0,4.46-4.45H214.88Z" transform="translate(-170.54 -397.51)"/></svg>